<svg xmlns="http://www.w3.org/2000/svg" xmlns:xlink="http://www.w3.org/1999/xlink" width="270.5103759765625" height="296.311279296875" viewBox="0 0 270.5103759765625 296.311279296875" fill="none">
<rect x="0" y="0" width="0" height="0" fill="rgba(249, 249, 249, 1)" />
<path    stroke="rgba(255, 255, 255, 1)" stroke-width="5"    d="M22 84.2777L134.631 159.632M134.631 159.632L249 84.2777M134.631 159.632L134.631 266.278">
</path>
<g style="mix-blend-mode:multiply">
<path d="M268.5 75.5277L267.87 147.528L267.87 220.778L134.93 294.028L2 220.778L2 147.528L2 74.2777L135.56 2.27774L268.5 75.5277Z" stroke="rgba(56, 56, 56, 1)" stroke-width="4"      fill="#EDFFFF" >
</path>
</g>
<g >
<path     fill="#2A82E4"  d="M40.46 115.698L40.04 147.198L62.02 147.198L61.18 115.698L85.68 115.698L81.9 184.298L63.14 184.298L62.16 152.798L39.9 152.798L39.48 184.298L29.26 184.298L28 115.698L40.46 115.698Z">
</path>
<path     fill="#000000"  d="M112.76 166.558L112.16 179.998L129.32 179.998L129.32 184.678L99.92 184.678L92.96 178.678L91.88 152.158L98.6 143.038L127.76 143.038L132.44 148.558L131.72 166.558L112.76 166.558ZM113.12 161.758L125.36 161.758L124.64 147.718L113.72 147.718L113.12 161.758ZM167.48 180.838L167.48 185.398L147.2 185.398L140.36 178.438L138.56 126.598L161.24 126.598L159.44 180.838L167.48 180.838ZM200.6 180.838L200.6 185.398L180.32 185.398L173.48 178.438L171.68 126.598L194.36 126.598L192.56 180.838L200.6 180.838ZM247.04 184.078L214.4 184.078Q212.12 182.278 209.6 180.298Q207.08 178.318 205.28 176.758L203.84 149.638L208.64 142.798L247.88 142.798L253.76 149.998L251.84 179.278L247.04 184.078ZM222.8 179.398L241.04 179.398L241.16 147.478L225.32 147.478L222.8 179.398Z">
</path>
</g>
</svg>
